<?xml version="1.0" encoding="UTF-8" standalone="no"?>
<svg
   viewBox="0 0 41.041571 8.0235234"
   version="1.1"
   id="svg2"
   width="41.041573"
   height="8.0235233"
   xmlns="http://www.w3.org/2000/svg"
   xmlns:svg="http://www.w3.org/2000/svg">
  <defs
     id="defs2">
    <filter
       style="color-interpolation-filters:sRGB"
       id="filter36"
       x="-0.20199244"
       y="-0.15862648"
       width="1.4039767"
       height="1.3172609">
      <feGaussianBlur
         stdDeviation="0.19232412"
         id="feGaussianBlur36" />
    </filter>
    <filter
       style="color-interpolation-filters:sRGB"
       id="filter37"
       x="-0.13593258"
       y="-0.25443079"
       width="1.2718651"
       height="1.5088639">
      <feGaussianBlur
         stdDeviation="0.19232412"
         id="feGaussianBlur37" />
    </filter>
    <filter
       style="color-interpolation-filters:sRGB"
       id="filter38"
       x="-0.19999568"
       y="-0.1583175"
       width="1.3999996"
       height="1.3166271">
      <feGaussianBlur
         stdDeviation="0.19232412"
         id="feGaussianBlur38" />
    </filter>
    <filter
       style="color-interpolation-filters:sRGB"
       id="filter39"
       x="-0.20149024"
       y="-0.23535131"
       width="1.4029805"
       height="1.4707026">
      <feGaussianBlur
         stdDeviation="0.19232412"
         id="feGaussianBlur39" />
    </filter>
    <filter
       style="color-interpolation-filters:sRGB"
       id="filter40"
       x="-0.019499948"
       y="-0.12584055"
       width="1.0389999"
       height="1.2516811">
      <feGaussianBlur
         stdDeviation="0.20808051"
         id="feGaussianBlur40" />
    </filter>
    <filter
       style="color-interpolation-filters:sRGB"
       id="filter41"
       x="-0.16342029"
       y="-0.15605686"
       width="1.3268448"
       height="1.3121218">
      <feGaussianBlur
         stdDeviation="0.19232412"
         id="feGaussianBlur41" />
    </filter>
    <filter
       style="color-interpolation-filters:sRGB"
       id="filter42"
       x="-0.13396974"
       y="-0.24793995"
       width="1.2679395"
       height="1.4958776">
      <feGaussianBlur
         stdDeviation="0.19232412"
         id="feGaussianBlur42" />
    </filter>
    <filter
       style="color-interpolation-filters:sRGB"
       id="filter43"
       x="-0.16186609"
       y="-0.15535331"
       width="1.3237279"
       height="1.3106986">
      <feGaussianBlur
         stdDeviation="0.19232412"
         id="feGaussianBlur43" />
    </filter>
  </defs>
  <g
     id="g43"
     style="fill:#c7d8f9;fill-opacity:1;stroke:#e4e7ed;stroke-opacity:1"
     transform="matrix(0.40605808,0,0,0.40605808,0.05794076,0.0656553)">
    <path
       style="display:inline;mix-blend-mode:normal;fill:#c7d8f9;fill-opacity:1;stroke:#e4e7ed;stroke-width:1.06492;stroke-linecap:round;stroke-linejoin:round;stroke-dasharray:none;stroke-opacity:1;paint-order:stroke markers fill;filter:url(#filter42)"
       d="m 13.948646,20.281717 2.293325,-4.009188 H 8.8223908 c 1.1236713,1.96151 2.9638782,3.400715 5.1262552,4.009188 z"
       id="path2-3"
       transform="matrix(1.0819262,0,0,1.0819262,-7.614695,-3.7320386)" />
    <path
       style="display:inline;mix-blend-mode:normal;fill:#c7d8f9;fill-opacity:1;stroke:#e4e7ed;stroke-width:1.04118;stroke-linecap:round;stroke-linejoin:round;stroke-dasharray:none;stroke-opacity:1;paint-order:stroke markers fill;filter:url(#filter36)"
       d="M 8.1585186,14.626115 H 12.750772 L 9.0353774,8.4347223 C 8.2814525,9.6892467 7.8857373,11.113397 7.8883861,12.562662 c 0,0.711891 0.094332,1.403148 0.2701325,2.063453 z"
       id="path44"
       transform="matrix(1.0819262,0,0,1.0819262,-7.614695,-3.7320386)" />
    <path
       style="display:inline;mix-blend-mode:normal;fill:#c7d8f9;fill-opacity:1;stroke:#e4e7ed;stroke-width:1.0763;stroke-linecap:round;stroke-linejoin:round;stroke-dasharray:none;stroke-opacity:1;paint-order:stroke markers fill;filter:url(#filter43)"
       d="m 10.147391,6.7579678 2.358076,3.9769422 3.818101,-6.4351816 c -2.310727,-0.00293 -4.529633,0.8802365 -6.176177,2.4582394 z"
       id="path45"
       transform="matrix(1.0819262,0,0,1.0819262,-7.614695,-3.7320386)" />
    <path
       style="display:inline;mix-blend-mode:normal;fill:#c7d8f9;fill-opacity:1;stroke:#e4e7ed;stroke-width:1.0201;stroke-linecap:round;stroke-linejoin:round;stroke-dasharray:none;stroke-opacity:1;paint-order:stroke markers fill;filter:url(#filter37)"
       d="m 18.09764,4.7257224 -2.209255,3.8187955 h 7.147591 C 21.953497,6.6761586 20.180749,5.3052995 18.09764,4.7257224 Z"
       id="path46"
       transform="matrix(1.0819262,0,0,1.0819262,-7.614695,-3.7320386)" />
    <path
       style="display:inline;mix-blend-mode:normal;fill:#c7d8f9;fill-opacity:1;stroke:#e4e7ed;stroke-width:1.05448;stroke-linecap:round;stroke-linejoin:round;stroke-dasharray:none;stroke-opacity:1;paint-order:stroke markers fill;filter:url(#filter38)"
       d="m 23.83131,10.435723 h -4.669317 l 3.776653,6.24579 c 0.766958,-1.265445 1.169692,-2.702114 1.167329,-4.164207 0,-0.718146 -0.09592,-1.415476 -0.274665,-2.081583 z"
       id="path47"
       transform="matrix(1.0819262,0,0,1.0819262,-7.614695,-3.7320386)" />
    <path
       style="display:inline;mix-blend-mode:normal;fill:#c7d8f9;fill-opacity:1;stroke:#e4e7ed;stroke-width:1.05999;stroke-linecap:round;stroke-linejoin:round;stroke-dasharray:none;stroke-opacity:1;paint-order:stroke markers fill;filter:url(#filter41)"
       d="m 21.846971,18.144647 -2.316538,-3.926515 -3.750843,6.353585 c 2.270022,0.0029 4.449841,-0.869076 6.067381,-2.42707 z"
       id="path48"
       transform="matrix(1.0819262,0,0,1.0819262,-7.614695,-3.7320386)" />
    <path
       style="display:inline;mix-blend-mode:normal;fill:#c7d8f9;fill-opacity:1;stroke:#e4e7ed;stroke-width:1.03647;stroke-linecap:round;stroke-linejoin:round;stroke-dasharray:none;stroke-opacity:1;paint-order:stroke markers fill;filter:url(#filter39)"
       d="M 13.656338,10.418404 H 11.22389 L 10.008719,12.5 11.22389,14.581597 h 2.432448 L 14.871509,12.5 Z"
       id="path50"
       transform="matrix(1.0819262,0,0,1.0819262,-3.7631611,-3.7320386)" />
  </g>
  <path
     style="font-weight:943;font-size:5.33333px;line-height:1.25;font-family:'.SF Compact Rounded';-inkscape-font-specification:'.SF Compact Rounded weight=943';text-align:center;letter-spacing:0.6px;text-anchor:middle;fill:#c7d8f9;fill-opacity:1;stroke:#e4e7ed;stroke-width:0.198009;stroke-linecap:round;stroke-linejoin:round;stroke-miterlimit:1.5;stroke-dasharray:none;stroke-opacity:1;paint-order:stroke markers fill;filter:url(#filter40)"
     d="M 10.701335,4.8971778 V 3.5482196 h 0.04167 l 1.026041,1.4973952 q 0.151041,0.221354 0.270833,0.302084 0.122396,0.08073 0.286458,0.08073 0.466146,0 0.466146,-0.554687 V 2.3529097 q 0,-0.25 -0.127605,-0.390625 -0.124999,-0.140625 -0.351562,-0.140625 -0.221354,0 -0.346354,0.140625 -0.122396,0.138021 -0.122396,0.390625 v 1.3203109 h -0.03906 L 10.787277,2.1966587 q -0.151042,-0.213542 -0.263021,-0.294271 -0.111979,-0.08073 -0.273437,-0.08073 -0.4947912,0 -0.4947912,0.588541 v 2.4869781 q 0,0.247396 0.125,0.390625 0.1276042,0.140625 0.3515622,0.140625 0.223958,0 0.346354,-0.138021 0.122396,-0.140625 0.122396,-0.393229 z m 2.678123,-0.7656242 q 0,0.6328122 0.393229,0.9895822 0.395833,0.356771 1.080729,0.356771 0.257812,0 0.468749,-0.04687 0.213542,-0.04687 0.361979,-0.132813 0.145834,-0.08333 0.223959,-0.187499 0.08073,-0.106771 0.08073,-0.239584 0,-0.153645 -0.08854,-0.239583 -0.08854,-0.08594 -0.239584,-0.08594 -0.111979,0 -0.179687,0.03906 -0.0651,0.03646 -0.158854,0.08333 -0.03385,0.01823 -0.07292,0.03385 -0.03906,0.01302 -0.08854,0.02604 -0.04687,0.01302 -0.106771,0.01823 -0.05729,0.0052 -0.127604,0.0052 -0.25,0 -0.388021,-0.127604 -0.138019,-0.127587 -0.143227,-0.3281082 v -0.08594 h 1.195311 q 0.257813,0 0.367188,-0.1041661 0.111979,-0.104167 0.111979,-0.351562 0,-0.3489591 -0.169271,-0.6250001 -0.166666,-0.278646 -0.463541,-0.440104 -0.296875,-0.161458 -0.684896,-0.161458 -0.414062,0 -0.723958,0.16927 -0.307291,0.166667 -0.479166,0.46875 -0.169271,0.302083 -0.169271,0.7135411 z m 1.015625,-0.450521 v -0.0052 q 0,-0.1901039 0.09896,-0.3072919 0.09896,-0.119792 0.278645,-0.119792 0.166667,0 0.265625,0.117188 0.101563,0.117187 0.101563,0.3098959 v 0.0052 z m 2.065748,1.2890622 q 0,0.20052 0.130208,0.330729 0.130209,0.127604 0.307292,0.127604 0.179687,0 0.29427,-0.08073 0.117188,-0.08073 0.25,-0.283854 l 0.328125,-0.513021 h 0.04687 l 0.330729,0.513021 q 0.130208,0.203124 0.247396,0.283854 0.117187,0.08073 0.296874,0.08073 0.177084,0 0.307292,-0.127604 0.130208,-0.130209 0.130208,-0.330729 0,-0.106771 -0.04427,-0.192709 -0.04167,-0.08854 -0.132812,-0.177083 l -0.58073,-0.5989572 0.622396,-0.6302089 q 0.135416,-0.127604 0.135416,-0.330729 0,-0.20052 -0.132812,-0.328125 -0.130208,-0.130208 -0.3125,-0.130208 -0.174479,0 -0.289062,0.08073 -0.114584,0.08073 -0.247396,0.286459 l -0.330729,0.51302 h -0.04687 l -0.330729,-0.51302 q -0.132812,-0.20573 -0.247396,-0.286459 -0.114583,-0.08073 -0.289062,-0.08073 -0.179687,0 -0.3125,0.130208 -0.132812,0.127605 -0.132812,0.328125 0,0.197917 0.138021,0.330729 l 0.624999,0.6302089 -0.632812,0.6432282 q -0.0599,0.05729 -0.09375,0.145833 -0.03385,0.08594 -0.03385,0.179688 z m 3.526564,-0.322917 q 0,0.419271 0.226562,0.625 0.226562,0.205729 0.6875,0.205729 0.177083,0 0.317708,-0.03906 0.140625,-0.03646 0.236979,-0.10677 0.08594,-0.0651 0.130208,-0.148438 0.04427,-0.08594 0.04427,-0.190104 0,-0.122396 -0.06771,-0.195312 -0.06771,-0.07292 -0.174479,-0.07292 -0.0625,0 -0.104167,0.0078 -0.03906,0.0078 -0.09115,0.0078 -0.109375,0 -0.15625,-0.0651 -0.04687,-0.0651 -0.04687,-0.213542 V 3.3893447 h 0.143229 q 0.195313,0 0.299479,-0.09635 0.104167,-0.09896 0.104167,-0.273437 0,-0.174479 -0.104167,-0.270833 -0.104166,-0.09896 -0.299479,-0.09896 h -0.158854 v -0.242188 q 0,-0.523437 -0.476562,-0.523437 -0.229166,0 -0.354166,0.135417 -0.125,0.132812 -0.125,0.38802 v 0.242188 h -0.09114 q -0.195312,0 -0.29948,0.09896 -0.104167,0.09635 -0.104167,0.270833 0,0.174479 0.104167,0.273437 0.104168,0.09635 0.29948,0.09635 h 0.0599 z m 2.019269,-0.8124992 q 0,0.7734372 0.427083,1.2109362 0.429688,0.434896 1.195312,0.434896 0.466146,0 0.809895,-0.169271 0.346354,-0.16927 0.533854,-0.476562 0.190104,-0.307291 0.190104,-0.7187492 v -0.140624 q 0,-0.278647 -0.135416,-0.406251 -0.132813,-0.1302079 -0.424479,-0.1302079 h -0.565104 q -0.195312,0 -0.296875,0.08854 -0.101562,0.08594 -0.101562,0.255208 0,0.169272 0.101562,0.260418 0.101563,0.09115 0.296875,0.09115 h 0.158854 v 0.07292 q 0,0.1302079 -0.0651,0.2317699 -0.0651,0.1015622 -0.184896,0.1588542 -0.117187,0.05469 -0.273437,0.05469 -0.315104,0 -0.476562,-0.2083332 -0.161459,-0.2109359 -0.161459,-0.6119789 v -0.372395 q 0,-0.40625 0.164063,-0.609375 0.164062,-0.205729 0.5,-0.205729 0.156249,0 0.270833,0.0599 0.117187,0.05729 0.216145,0.138021 0.101563,0.07813 0.205729,0.148437 0.05729,0.03906 0.122396,0.0625 0.0651,0.02083 0.143229,0.02083 0.182292,0 0.296875,-0.111979 0.114583,-0.114583 0.114583,-0.29427 0,-0.169271 -0.117187,-0.328125 -0.114583,-0.158854 -0.309896,-0.28125 -0.20052,-0.127604 -0.466145,-0.200521 -0.263021,-0.07292 -0.557292,-0.07292 -0.494791,0 -0.85677,0.20052 -0.361979,0.197917 -0.559895,0.5625 -0.195313,0.361979 -0.195313,0.85677 z m 4.608074,0.6718742 q 0,-0.1223962 0.09375,-0.1927082 0.09375,-0.07292 0.247396,-0.07292 h 0.315104 v 0.2552092 q 0,0.07813 -0.04687,0.143229 -0.04427,0.0625 -0.122396,0.101562 -0.07552,0.03646 -0.171875,0.03646 -0.135416,0 -0.226562,-0.07552 -0.08854,-0.07813 -0.08854,-0.195313 z m 0.653646,0.565104 q 0,0 0.02344,0 0.02344,0 0.02604,0 v 0.01563 q 0.03125,0.164062 0.153646,0.252604 0.125,0.08854 0.3125,0.08854 0.23177,0 0.35677,-0.132813 0.125,-0.135416 0.125,-0.38802 V 3.5768686 q 0,-0.4817699 -0.333333,-0.7473949 -0.330729,-0.265625 -0.937499,-0.265625 -0.260417,0 -0.460938,0.03646 -0.20052,0.03646 -0.343749,0.104167 -0.208334,0.09115 -0.302084,0.21875 -0.09375,0.125 -0.09375,0.255208 0,0.140625 0.09115,0.234375 0.09115,0.09375 0.247396,0.09375 0.111979,0 0.190104,-0.02344 0.08073,-0.02344 0.151042,-0.05989 0.10677,-0.05469 0.213541,-0.101563 0.109375,-0.04948 0.242187,-0.04948 0.158855,0 0.25,0.07552 0.09115,0.07292 0.09115,0.2135409 v 0.174479 h -0.570312 q -0.494791,0.0026 -0.778645,0.229168 -0.28125,0.2265621 -0.28125,0.6223942 0,0.377604 0.255208,0.611979 0.255208,0.231771 0.664062,0.231771 0.164062,0 0.302083,-0.04427 0.140625,-0.04427 0.244792,-0.125 0.104166,-0.08073 0.161458,-0.190104 z m 2.128646,0.356771 q 0.239583,0 0.367187,-0.138021 0.130208,-0.140625 0.130208,-0.40625 V 2.1810337 q 0,-0.265625 -0.130208,-0.40625 -0.127604,-0.140625 -0.367187,-0.140625 -0.242188,0 -0.369792,0.140625 -0.127604,0.140625 -0.127604,0.40625 v 2.7031231 q 0,0.265625 0.127604,0.40625 0.127604,0.138021 0.369792,0.138021 z m 1.696354,0 q 0.239583,0 0.367187,-0.138021 0.130208,-0.140625 0.130208,-0.40625 V 2.1810337 q 0,-0.265625 -0.130208,-0.40625 -0.127604,-0.140625 -0.367187,-0.140625 -0.242188,0 -0.369792,0.140625 -0.127604,0.140625 -0.127604,0.40625 v 2.7031231 q 0,0.265625 0.127604,0.40625 0.127604,0.138021 0.369792,0.138021 z m 1.058333,-1.2968742 q 0,0.6328122 0.393229,0.9895822 0.395833,0.356771 1.080729,0.356771 0.257812,0 0.468749,-0.04687 0.213542,-0.04687 0.361979,-0.132813 0.145834,-0.08333 0.223958,-0.187499 0.08073,-0.106771 0.08073,-0.239584 0,-0.153645 -0.08854,-0.239583 -0.08854,-0.08594 -0.239583,-0.08594 -0.111979,0 -0.179688,0.03906 -0.0651,0.03646 -0.158854,0.08333 -0.03385,0.01823 -0.07292,0.03385 -0.03906,0.01302 -0.08854,0.02604 -0.04687,0.01302 -0.106771,0.01823 -0.05729,0.0052 -0.127604,0.0052 -0.25,0 -0.38802,-0.127604 -0.138021,-0.127604 -0.143229,-0.3281252 v -0.08594 h 1.195311 q 0.257813,0 0.367188,-0.1041661 0.111979,-0.104167 0.111979,-0.351562 0,-0.3489591 -0.169271,-0.6250001 -0.166667,-0.278646 -0.463541,-0.440104 -0.296875,-0.161458 -0.684896,-0.161458 -0.414062,0 -0.723958,0.16927 -0.307291,0.166667 -0.479166,0.46875 -0.169271,0.302083 -0.169271,0.7135411 z m 1.015625,-0.450521 v -0.0052 q 0,-0.1901039 0.09896,-0.3072919 0.09896,-0.119792 0.278645,-0.119792 0.166667,0 0.265625,0.117188 0.101563,0.117187 0.101563,0.3098959 v 0.0052 z m 3.209374,1.2031242 V 3.9831166 q 0,-0.187501 0.0599,-0.317709 0.0599,-0.130208 0.179688,-0.2005209 0.119791,-0.07031 0.304687,-0.07813 0.106771,-0.0052 0.184896,-0.03125 0.08073,-0.02604 0.135416,-0.07292 0.05208,-0.04948 0.07813,-0.122396 0.02865,-0.07292 0.02865,-0.171875 0,-0.200521 -0.109375,-0.3125 -0.111979,-0.111979 -0.304687,-0.111979 -0.138021,0 -0.247396,0.05469 -0.106771,0.05469 -0.182291,0.161458 -0.07552,0.106771 -0.111979,0.260416 h -0.04948 v -0.01042 q -0.02083,-0.223959 -0.140624,-0.335938 -0.117188,-0.111979 -0.333334,-0.111979 -0.239583,0 -0.364583,0.140625 -0.122395,0.138021 -0.122395,0.403646 v 1.7578111 q 0,0.260417 0.119791,0.403646 0.119792,0.140625 0.364583,0.140625 0.247396,0 0.377604,-0.140625 0.132813,-0.143229 0.132813,-0.403646 z m 1.295626,1.078125 q 0,0.158854 0.109375,0.26302 0.169271,0.164063 0.554687,0.164063 0.546875,0 0.859375,-0.236979 0.312499,-0.236979 0.486978,-0.760417 l 0.716146,-2.1328111 q 0.04427,-0.130208 0.04427,-0.221354 0,-0.197916 -0.132813,-0.325521 -0.130208,-0.130208 -0.335937,-0.130208 -0.398437,0 -0.5,0.455729 l -0.375,1.6354161 h -0.03906 L 38.706197,3.0378037 q -0.09375,-0.455729 -0.513021,-0.455729 -0.208333,0 -0.346354,0.130208 -0.138021,0.127605 -0.138021,0.325521 0,0.04687 0.0078,0.09896 0.0078,0.05208 0.02865,0.122396 l 0.726562,2.1640611 q -0.0026,0.03385 -0.0078,0.07031 -0.0026,0.03906 -0.01563,0.07031 -0.02865,0.0625 -0.09375,0.09896 -0.0651,0.03646 -0.158854,0.03646 -0.07813,-0.0026 -0.125,-0.01302 -0.04427,-0.0078 -0.106771,-0.0078 -0.130208,0 -0.210937,0.08073 -0.08073,0.08073 -0.08073,0.203125 z"
     id="text67"
     aria-label="NextGallery" />
</svg>
