<?xml version="1.0" encoding="UTF-8" standalone="no"?>
<svg
   viewBox="0 0 19.386144 19.444992"
   version="1.1"
   id="svg2"
   width="19.386145"
   height="19.444992"
   xmlns="http://www.w3.org/2000/svg"
   xmlns:svg="http://www.w3.org/2000/svg">
  <defs
     id="defs2">
    <filter
       style="color-interpolation-filters:sRGB"
       id="filter250"
       x="-0.052429538"
       y="-0.052254288"
       width="1.1048591"
       height="1.1045086">
      <feGaussianBlur
         stdDeviation="0.35428415"
         id="feGaussianBlur250" />
    </filter>
  </defs>
  <g
     id="layer1"
     style="display:inline"
     transform="translate(-2.7470415,-2.7775039)">
    <g
       id="g250"
       transform="matrix(1.0819262,0,0,1.0819262,-4.8676535,-0.95453468)"
       style="mix-blend-mode:normal;filter:url(#filter250)">
      <path
         style="display:inline;fill:#ffd127;fill-opacity:1;stroke-width:1.07563"
         d="m 13.948646,20.281717 2.293325,-4.009188 H 8.8223908 c 1.1236713,1.96151 2.9638782,3.400715 5.1262552,4.009188 z"
         id="path2-3" />
      <path
         style="display:inline;fill:#974900;fill-opacity:1;stroke-width:1.05165"
         d="M 8.1585186,14.626115 H 12.750772 L 9.0353774,8.4347223 C 8.2814525,9.6892467 7.8857373,11.113397 7.8883861,12.562662 c 0,0.711891 0.094332,1.403148 0.2701325,2.063453 z"
         id="path44" />
      <path
         style="display:inline;fill:#ff296d;fill-opacity:1;stroke-width:1.08712"
         d="m 10.147391,6.7579678 2.358076,3.9769422 3.818101,-6.4351816 c -2.310727,-0.00293 -4.529633,0.8802365 -6.176177,2.4582394 z"
         id="path45" />
      <path
         style="display:inline;fill:#c527ff;fill-opacity:1;stroke-width:1.03036"
         d="m 18.09764,4.7257224 -2.209255,3.8187955 h 7.147591 C 21.953497,6.6761586 20.180749,5.3052995 18.09764,4.7257224 Z"
         id="path46" />
      <path
         style="display:inline;fill:#2762ff;fill-opacity:1;stroke-width:1.06508"
         d="m 23.83131,10.435723 h -4.669317 l 3.776653,6.24579 c 0.766958,-1.265445 1.169692,-2.702114 1.167329,-4.164207 0,-0.718146 -0.09592,-1.415476 -0.274665,-2.081583 z"
         id="path47" />
      <path
         style="display:inline;fill:#27ffb1;fill-opacity:1;stroke-width:1.07065"
         d="m 21.846971,18.144647 -2.316538,-3.926515 -3.750843,6.353585 c 2.270022,0.0029 4.449841,-0.869076 6.067381,-2.42707 z"
         id="path48" />
      <path
         style="display:inline;fill:#ffb4d7;fill-opacity:1;stroke-width:1.04689"
         d="M 13.656338,10.418404 H 11.22389 L 10.008719,12.5 11.22389,14.581597 h 2.432448 L 14.871509,12.5 Z"
         id="path50"
         transform="translate(3.559886)" />
    </g>
  </g>
</svg>
