<?xml version="1.0" encoding="UTF-8" standalone="no"?>
<svg
   viewBox="0 0 30.887149 19.444992"
   version="1.1"
   id="svg2"
   width="30.88715"
   height="19.444992"
   xmlns="http://www.w3.org/2000/svg"
   xmlns:svg="http://www.w3.org/2000/svg">
  <defs
     id="defs2">
    <linearGradient
       id="swatch249">
      <stop
         style="stop-color:#c519f9;stop-opacity:1;"
         offset="0"
         id="stop249" />
    </linearGradient>
    <linearGradient
       id="swatch67">
      <stop
         style="stop-color:white;stop-opacity:0.26078799;"
         offset="0"
         id="stop67" />
    </linearGradient>
    <linearGradient
       id="swatch5">
      <stop
         style="stop-color:black;stop-opacity:1;"
         offset="0"
         id="stop5" />
    </linearGradient>
    <filter
       style="color-interpolation-filters:sRGB"
       id="filter250"
       x="-0.052429538"
       y="-0.052254288"
       width="1.1048591"
       height="1.1045086">
      <feGaussianBlur
         stdDeviation="0.35428415"
         id="feGaussianBlur250" />
    </filter>
  </defs>
  <g
     id="layer1"
     style="display:inline"
     transform="translate(3.0034606,-2.777504)">
    <g
       id="g250"
       transform="matrix(1.0819262,0,0,1.0819262,-4.8676535,-0.95453468)"
       style="mix-blend-mode:normal;filter:url(#filter250)">
      <path
         style="display:inline;fill:#ffd127;fill-opacity:1;stroke-width:1.07563"
         d="m 13.948646,20.281717 2.293325,-4.009188 H 8.8223908 c 1.1236713,1.96151 2.9638782,3.400715 5.1262552,4.009188 z"
         id="path2-3" />
      <path
         style="display:inline;fill:#974900;fill-opacity:1;stroke-width:1.05165"
         d="M 8.1585186,14.626115 H 12.750772 L 9.0353774,8.4347223 C 8.2814525,9.6892467 7.8857373,11.113397 7.8883861,12.562662 c 0,0.711891 0.094332,1.403148 0.2701325,2.063453 z"
         id="path44" />
      <path
         style="display:inline;fill:#ff296d;fill-opacity:1;stroke-width:1.08712"
         d="m 10.147391,6.7579678 2.358076,3.9769422 3.818101,-6.4351816 c -2.310727,-0.00293 -4.529633,0.8802365 -6.176177,2.4582394 z"
         id="path45" />
      <path
         style="display:inline;fill:#c527ff;fill-opacity:1;stroke-width:1.03036"
         d="m 18.09764,4.7257224 -2.209255,3.8187955 h 7.147591 C 21.953497,6.6761586 20.180749,5.3052995 18.09764,4.7257224 Z"
         id="path46" />
      <path
         style="display:inline;fill:#2762ff;fill-opacity:1;stroke-width:1.06508"
         d="m 23.83131,10.435723 h -4.669317 l 3.776653,6.24579 c 0.766958,-1.265445 1.169692,-2.702114 1.167329,-4.164207 0,-0.718146 -0.09592,-1.415476 -0.274665,-2.081583 z"
         id="path47" />
      <path
         style="display:inline;fill:#27ffb1;fill-opacity:1;stroke-width:1.07065"
         d="m 21.846971,18.144647 -2.316538,-3.926515 -3.750843,6.353585 c 2.270022,0.0029 4.449841,-0.869076 6.067381,-2.42707 z"
         id="path48" />
      <path
         style="display:inline;fill:#ffb4d7;fill-opacity:1;stroke-width:1.04689"
         d="M 13.656338,10.418404 H 11.22389 L 10.008719,12.5 11.22389,14.581597 h 2.432448 L 14.871509,12.5 Z"
         id="path50"
         transform="translate(3.559886)" />
    </g>
  </g>
  <path
     style="font-weight:943;font-size:5.33333px;line-height:1.25;font-family:'.SF Compact Rounded';-inkscape-font-specification:'.SF Compact Rounded weight=943';text-align:center;letter-spacing:0.6px;text-anchor:middle;fill:white;fill-opacity:0.667917;stroke:black;stroke-width:0.2;stroke-linecap:round;stroke-linejoin:round;stroke-miterlimit:1.5"
     d="M 1.0453119,10.607912 V 9.258954 h 0.041667 l 1.026041,1.497395 q 0.1510416,0.221354 0.2708332,0.302084 0.1223958,0.08073 0.2864582,0.08073 0.4661455,0 0.4661455,-0.554687 V 8.063644 q 0,-0.25 -0.1276041,-0.390625 -0.1249999,-0.140625 -0.3515622,-0.140625 -0.2213541,0 -0.346354,0.140625 Q 2.1885407,7.81104 2.1885407,8.063644 V 9.383955 H 2.1494779 L 1.1312493,7.907393 Q 0.98020775,7.693851 0.86822865,7.613122 q -0.1119791,-0.08073 -0.2734373,-0.08073 -0.49479134,0 -0.49479134,0.588541 v 2.486978 q 0,0.247396 0.12499993,0.390625 0.12760408,0.140625 0.35156221,0.140625 0.2239582,0 0.346354,-0.138021 Q 1.0453119,10.860515 1.0453119,10.607911 Z M 3.7234355,9.842287 q 0,0.632813 0.393229,0.989583 0.3958331,0.356771 1.0807285,0.356771 0.2578123,0 0.4687497,-0.04687 0.2135415,-0.04687 0.361979,-0.132813 0.1458332,-0.08333 0.2239582,-0.187499 0.080729,-0.106771 0.080729,-0.239584 0,-0.153645 -0.088542,-0.239583 -0.088542,-0.08594 -0.2395832,-0.08594 -0.1119791,0 -0.1796874,0.03906 -0.065104,0.03646 -0.1588541,0.08333 -0.033854,0.01823 -0.072917,0.03385 -0.039063,0.01302 -0.088542,0.02604 -0.046875,0.01302 -0.1067708,0.01823 -0.057292,0.0052 -0.1276041,0.0052 -0.2499998,0 -0.3880206,-0.127604 Q 4.7442682,10.206871 4.7390599,10.00635 V 9.92041 h 1.1953118 q 0.2578124,0 0.3671873,-0.104166 0.1119791,-0.104167 0.1119791,-0.351562 0,-0.348959 -0.1692707,-0.625 Q 6.0776008,8.561036 5.780726,8.399578 5.4838511,8.23812 5.0958305,8.23812 4.6817683,8.23812 4.3718726,8.40739 4.0645812,8.574057 3.8927063,8.87614 3.7234355,9.178223 3.7234355,9.589681 Z m 1.0156244,-0.45052 v -0.0052 q 0,-0.190104 0.098958,-0.307292 0.098958,-0.119792 0.2786457,-0.119792 0.1666665,0 0.2656248,0.117188 0.1015624,0.117187 0.1015624,0.309896 v 0.0052 z m 2.0657483,1.289062 q 0,0.20052 0.1302083,0.330729 0.1302083,0.127604 0.3072915,0.127604 0.1796874,0 0.2942706,-0.08073 0.1171875,-0.08073 0.2499999,-0.283854 l 0.3281248,-0.513021 h 0.046875 l 0.3307289,0.513021 q 0.1302083,0.203124 0.2473957,0.283854 0.1171874,0.08073 0.2968748,0.08073 0.1770833,0 0.3072915,-0.127604 0.1302084,-0.130209 0.1302084,-0.330729 0,-0.106771 -0.04427,-0.192709 -0.041667,-0.08854 -0.1328124,-0.177083 L 8.7162654,9.712079 9.3386609,9.081871 q 0.1354167,-0.127604 0.1354167,-0.330729 0,-0.20052 -0.1328125,-0.328125 -0.1302083,-0.130208 -0.3124999,-0.130208 -0.174479,0 -0.2890623,0.08073 -0.1145832,0.08073 -0.2473957,0.286459 L 8.1615783,9.173018 H 8.1147033 L 7.7839743,8.659998 Q 7.6511619,8.454268 7.5365786,8.373539 7.4219954,8.292809 7.2475163,8.292809 q -0.1796874,0 -0.3124998,0.130208 -0.1328124,0.127605 -0.1328124,0.328125 0,0.197917 0.1380207,0.330729 l 0.6249997,0.630208 -0.6328122,0.643229 q -0.059896,0.05729 -0.09375,0.145833 -0.033854,0.08594 -0.033854,0.179688 z m 3.5265638,-0.322917 q 0,0.419271 0.226562,0.625 0.226562,0.205729 0.6875,0.205729 0.177083,0 0.317708,-0.03906 0.140625,-0.03646 0.236979,-0.10677 0.08594,-0.0651 0.130208,-0.148438 0.04427,-0.08594 0.04427,-0.190104 0,-0.122396 -0.06771,-0.195312 -0.06771,-0.07292 -0.174479,-0.07292 -0.0625,0 -0.104167,0.0078 -0.03906,0.0078 -0.09115,0.0078 -0.109375,0 -0.15625,-0.0651 -0.04687,-0.0651 -0.04687,-0.213542 V 9.100079 h 0.143229 q 0.195313,0 0.299479,-0.09635 0.104167,-0.09896 0.104167,-0.273437 0,-0.174479 -0.104167,-0.270833 -0.104166,-0.09896 -0.299479,-0.09896 H 11.318348 V 8.118311 q 0,-0.523437 -0.476562,-0.523437 -0.229166,0 -0.354166,0.135417 -0.125,0.132812 -0.125,0.38802 v 0.242188 h -0.09114 q -0.195312,0 -0.2994794,0.09896 -0.104167,0.09635 -0.104167,0.270833 0,0.174479 0.104167,0.273437 0.1041674,0.09635 0.2994794,0.09635 h 0.0599 z m 2.019269,-0.812499 q 0,0.773437 0.427083,1.210936 0.429688,0.434896 1.195312,0.434896 0.466146,0 0.809895,-0.169271 0.346354,-0.16927 0.533854,-0.476562 0.190104,-0.307291 0.190104,-0.71875 V 9.686038 q 0,-0.278646 -0.135416,-0.40625 Q 15.23866,9.14958 14.946994,9.14958 H 14.38189 q -0.195312,0 -0.296875,0.08854 -0.101562,0.08594 -0.101562,0.255208 0,0.169271 0.101562,0.260417 0.101563,0.09115 0.296875,0.09115 h 0.158854 v 0.07292 q 0,0.130209 -0.0651,0.231771 -0.0651,0.101562 -0.184896,0.158854 -0.117187,0.05469 -0.273437,0.05469 -0.315104,0 -0.476562,-0.208333 Q 13.37929,9.94386 13.37929,9.542818 V 9.170423 q 0,-0.40625 0.164063,-0.609375 0.164062,-0.205729 0.5,-0.205729 0.156249,0 0.270833,0.0599 0.117187,0.05729 0.216145,0.138021 0.101563,0.07813 0.205729,0.148437 0.05729,0.03906 0.122396,0.0625 0.0651,0.02083 0.143229,0.02083 0.182292,0 0.296875,-0.111979 0.114583,-0.114583 0.114583,-0.29427 0,-0.169271 -0.117187,-0.328125 -0.114583,-0.158854 -0.309896,-0.28125 -0.20052,-0.127604 -0.466145,-0.200521 -0.263021,-0.07292 -0.557292,-0.07292 -0.494791,0 -0.85677,0.20052 -0.361979,0.197917 -0.559895,0.5625 -0.195313,0.361979 -0.195313,0.85677 z m 4.608074,0.671874 q 0,-0.122396 0.09375,-0.192708 0.09375,-0.07292 0.247396,-0.07292 h 0.315104 v 0.255209 q 0,0.07813 -0.04687,0.143229 -0.04427,0.0625 -0.122396,0.101562 -0.07552,0.03646 -0.171875,0.03646 -0.135416,0 -0.226562,-0.07552 -0.08854,-0.07813 -0.08854,-0.195313 z m 0.653646,0.565104 q 0,0 0.02344,0 0.02344,0 0.02604,0 v 0.01563 q 0.03125,0.164062 0.153646,0.252604 0.125,0.08854 0.3125,0.08854 0.23177,0 0.35677,-0.132813 0.125,-0.135416 0.125,-0.38802 V 9.287603 q 0,-0.48177 -0.333333,-0.747395 -0.330729,-0.265625 -0.937499,-0.265625 -0.260417,0 -0.460938,0.03646 -0.20052,0.03646 -0.343749,0.104167 -0.208334,0.09115 -0.302084,0.21875 -0.09375,0.125 -0.09375,0.255208 0,0.140625 0.09115,0.234375 0.09115,0.09375 0.247396,0.09375 0.111979,0 0.190104,-0.02344 0.08073,-0.02344 0.151042,-0.05989 0.10677,-0.05469 0.213541,-0.101563 0.109375,-0.04948 0.242187,-0.04948 0.158855,0 0.25,0.07552 0.09115,0.07292 0.09115,0.213541 V 9.44646 h -0.570312 q -0.494791,0.0026 -0.778645,0.229167 -0.28125,0.226562 -0.28125,0.622395 0,0.377604 0.255208,0.611979 0.255208,0.231771 0.664062,0.231771 0.164062,0 0.302083,-0.04427 0.140625,-0.04427 0.244792,-0.125 0.104166,-0.08073 0.161458,-0.190104 z m 2.128646,0.356771 q 0.239583,0 0.367187,-0.138021 0.130208,-0.140625 0.130208,-0.40625 V 7.891768 q 0,-0.265625 -0.130208,-0.40625 -0.127604,-0.140625 -0.367187,-0.140625 -0.242188,0 -0.369792,0.140625 -0.127604,0.140625 -0.127604,0.40625 v 2.703123 q 0,0.265625 0.127604,0.40625 0.127604,0.138021 0.369792,0.138021 z m 1.696354,0 q 0.239583,0 0.367187,-0.138021 0.130208,-0.140625 0.130208,-0.40625 V 7.891768 q 0,-0.265625 -0.130208,-0.40625 -0.127604,-0.140625 -0.367187,-0.140625 -0.242188,0 -0.369792,0.140625 -0.127604,0.140625 -0.127604,0.40625 v 2.703123 q 0,0.265625 0.127604,0.40625 0.127604,0.138021 0.369792,0.138021 z m 1.058333,-1.296875 q 0,0.632813 0.393229,0.989583 0.395833,0.356771 1.080729,0.356771 0.257812,0 0.468749,-0.04687 0.213542,-0.04687 0.361979,-0.132813 0.145834,-0.08333 0.223958,-0.187499 0.08073,-0.106771 0.08073,-0.239584 0,-0.153645 -0.08854,-0.239583 -0.08854,-0.08594 -0.239583,-0.08594 -0.111979,0 -0.179688,0.03906 -0.0651,0.03646 -0.158854,0.08333 -0.03385,0.01823 -0.07292,0.03385 -0.03906,0.01302 -0.08854,0.02604 -0.04687,0.01302 -0.106771,0.01823 -0.05729,0.0052 -0.127604,0.0052 -0.25,0 -0.38802,-0.127604 -0.138021,-0.127604 -0.143229,-0.328125 v -0.08594 h 1.195311 q 0.257813,0 0.367188,-0.104166 0.111979,-0.104167 0.111979,-0.351562 0,-0.348959 -0.169271,-0.625 Q 24.849859,8.561019 24.552985,8.399561 24.25611,8.238103 23.868089,8.238103 q -0.414062,0 -0.723958,0.16927 -0.307291,0.166667 -0.479166,0.46875 -0.169271,0.302083 -0.169271,0.713541 z m 1.015625,-0.45052 v -0.0052 q 0,-0.190104 0.09896,-0.307292 0.09896,-0.119792 0.278645,-0.119792 0.166667,0 0.265625,0.117188 0.101563,0.117187 0.101563,0.309896 v 0.0052 z m 3.209374,1.203124 V 9.69385 q 0,-0.1875 0.0599,-0.317708 0.0599,-0.130208 0.179688,-0.200521 0.119791,-0.07031 0.304687,-0.07813 0.106771,-0.0052 0.184896,-0.03125 0.08073,-0.02604 0.135416,-0.07292 0.05208,-0.04948 0.07813,-0.122396 0.02865,-0.07292 0.02865,-0.171875 0,-0.200521 -0.109375,-0.3125 -0.111979,-0.111979 -0.304687,-0.111979 -0.138021,0 -0.247396,0.05469 -0.106771,0.05469 -0.182291,0.161458 -0.07552,0.106771 -0.111979,0.260416 h -0.04948 V 8.740715 Q 26.666022,8.516756 26.546228,8.404777 26.42904,8.292798 26.212894,8.292798 q -0.239583,0 -0.364583,0.140625 -0.122395,0.138021 -0.122395,0.403646 v 1.757811 q 0,0.260417 0.119791,0.403646 0.119792,0.140625 0.364583,0.140625 0.247396,0 0.377604,-0.140625 0.132813,-0.143229 0.132813,-0.403646 z m 1.295626,1.078125 q 0,0.158854 0.109375,0.26302 0.169271,0.164063 0.554687,0.164063 0.546875,0 0.859375,-0.236979 0.312499,-0.236979 0.486978,-0.760417 L 30.74288,8.969892 q 0.04427,-0.130208 0.04427,-0.221354 0,-0.197916 -0.132813,-0.325521 -0.130208,-0.130208 -0.335937,-0.130208 -0.398437,0 -0.5,0.455729 l -0.375,1.635416 H 29.40434 L 29.050174,8.748538 q -0.09375,-0.455729 -0.513021,-0.455729 -0.208333,0 -0.346354,0.130208 -0.138021,0.127605 -0.138021,0.325521 0,0.04687 0.0078,0.09896 0.0078,0.05208 0.02865,0.122396 l 0.726562,2.164061 q -0.0026,0.03385 -0.0078,0.07031 -0.0026,0.03906 -0.01563,0.07031 -0.02865,0.0625 -0.09375,0.09896 -0.0651,0.03646 -0.158854,0.03646 -0.07813,-0.0026 -0.125,-0.01302 -0.04427,-0.0078 -0.106771,-0.0078 -0.130208,0 -0.210937,0.08073 -0.08073,0.08073 -0.08073,0.203125 z"
     id="text67"
     aria-label="NextGallery" />
</svg>
